<?xml version="1.0" encoding="UTF-8"?><svg id="Layer_1" xmlns="http://www.w3.org/2000/svg" viewBox="0 0 445 433"><path d="M39.779,126.563c-16.15-6.691,4.1-23.889,8.195-32.652,6.59-9.511,16.46-19.252,29.371-16.739,8.259,5.579,14.643,16.227,19.478,24.696,1.272,5.44,2.329,13.4,5.566,18.087,0,0,2.782,4.522,2.782,4.522l8,5.217c5.867,4.161,11.401,12.899,15.304,18.783v4.522s-4.87,0-4.87,0l-6.956-3.478c-11.576-5.236-27.273-13.668-38.957-18.782-4.712-1.335-18.29-2.377-23.305-2.783,0,0-7.304.348-7.304.348l-7.304-1.739Z"/><path d="M220.839,196.734c.626,5.066.9,9.142-1.343,10.786,0,0-.451.33-1.043.522-4.058,1.311-29.848-25.473-43.826-40.348-4.329-5.245-10.892-13.029-19.211-22.234-6.318-6.99-9.13-9.801-20.441-21.766-24.1-25.494-26.617-28.901-29.04-32.654-7.602-11.774-14.099-21.836-11.482-33.085,1.97-8.471,8.175-13.599,17.391-21.217,10.184-8.418,19.703-12.499,28.87-16.348,10.247-4.302,17.812-6.231,32.522-9.913,38.444-9.622,44.601-5.982,46.435-3.304,1,1.46,1.344,3.33,1.344,3.33.722,3.924-1.482,7.175-5.692,13.192-8.186,11.699-8.407,12.012-9.043,13.217-3.733,7.068-2.182,7.743-5.391,11.826-1.814,2.308-4.378,4.724-5.084,8.887-.246,1.451-.179,2.6-.14,3.158.887,12.633,4.18,21.346,4.18,21.346.939,2.486,2.945,11.628,6.957,29.913,1.268,5.782,3.485,15.947,5.739,29.217,1.613,9.498,2.872,18.389,3.79,24.87,2.378,16.794,1.871,15.886,2.881,20.076.672,2.786.991,5.367,1.628,10.53Z"/><path d="M237.931,201.309c-3.484-.465-4.191-9.209-8.696-36.224-3.634-21.797-4.235-22.469-5.573-33.639-1.422-11.865-.905-12.447-2.379-29.839-2.987-35.237-5.458-36.958-3.178-47.826,1.617-7.71,5.716-15.343,13.913-30.609,6.982-13.003,10.832-17.447,16-18.261,1.354-.213,1.873-.031,12.522,3.652,14.031,4.854,17.051,5.894,19.478,9.391,1.215,1.751.694,1.83,3.13,8.174,2.785,7.252,4.557,9.988,6.435,14.261,2.051,4.666,7.201,16.384,5.248,29.391-.169,1.129-1.575,5.232-4.379,13.391-4.042,11.761-6.063,17.642-8.348,23.826-4.005,10.837-4.991,12.667-9.565,25.217-1.704,4.677-2.557,7.015-3.449,9.547-3.185,9.044-3.532,10.681-5.073,14.279-2.364,5.519-3.137,5.376-6.783,12.348-5.235,10.011-4.607,12.152-9.217,20.348-4.352,7.736-7.284,12.947-10.087,12.572Z"/><path d="M309.061,87.693c-1.189-.504-1.367-2.672-.522-15.826.791-12.315,1.164-13.797.87-18.261-.109-1.645-.536-7.156-2.435-14.087-3.074-11.218-7.25-16.104-5.669-17.565,1.221-1.128,4.246,1.291,12.767,5.31,7.484,3.53,14.5,6.073,18.119,7.386,11.328,4.107,15.255,4.354,16,7.304.606,2.4-1.684,5.111-6.289,10.435-5.401,6.245-6.836,6.378-11.277,11.304-5.425,6.018-5.144,7.882-11.826,15.652-4.58,5.326-7.863,9.143-9.739,8.348Z"/><path d="M345.061,84.389c-1.019-1.632,1.37-5.021,3.226-7.652,1.367-1.938,2.042-2.454,5.205-5.827,2.608-2.781,5.198-5.681,9.308-9.477,2.354-2.173,3.294-2.875,4.522-2.783,1.482.112,2.007,1.28,5.391,4.522,2.13,2.04,1.917,1.573,4.696,4.174,1.359,1.272,3.163,3.025,5.217,5.217,2.445,3.394,1.755,4.879,1.565,5.217-.578,1.032-1.91,1.09-6.087,1.913-1.863.367-3.697.877-5.565,1.217-8.48,1.545-9.61,1.978-16.87,3.13-8.63,1.37-10.053,1.238-10.609.348Z"/><path d="M251.844,218.518c-2.272-3.519,5.425-11.297,30.261-39.521,6.288-7.146,16.532-18.849,25.274-28.879,6.87-7.882,14.344-15.254,20.813-23.469,1.353-1.719,10.934-13.93,21.217-21.391,1.928-1.399,5.023-3.46,9.391-4.696,3.915-1.108,5.523-.611,10.087-1.043,7.718-.732,14.039-3.19,17.913-4.696,6.69-2.601,9.839-4.904,13.044-3.304.886.442,1.762,1.46,3.478,3.478,2.148,2.526,4.41,5.516,5.739,7.652,9.19,14.762,14.957,33.217,14.957,33.217,14.118,45.186,12.876,50.69,9.677,53.752-.603.577-1.544,1.325-8.981,3.292-13.854,3.665-24.538,4.76-30.655,5.486-9.92,1.177-4.343.967-32.997,5.471-16.938,2.662-17.941,2.587-30.609,4.696-2.315.385-10.386,1.827-26.435,4.696,0,0-15.821,2.828-36.87,5.26-12.603,1.456-14.459,1.309-15.304,0Z"/><path d="M263.309,233.954c.354-1.625,5.191-1.389,14.511-2.533,3.696-.454,1.553-.321,12.285-1.989,8.993-1.398,16.041-2.493,23.304-3.304,12.552-1.402,11.867-.404,22.434-1.549,20.666-2.239,28.118-6.577,34.261-1.581,3.696,3.005,4.889,7.739,5.217,9.043,1.624,6.446-.743,11.793-1.913,14.435-.971,2.193-4.002,9.039-11.13,12.522-6.789,3.317-13.849,1.898-21.565.348-6.105-1.227-7.321-2.526-13.565-3.13-2.456-.238-4.887-.29-10.957-.87-2.818-.269-4.228-.403-5.567-.589-5.694-.787-9.969-2.103-13.042-3.064-4.321-1.351-2.791-1.182-12.522-4.696-3.864-1.395-5.679-1.99-8.522-3.415-2.99-1.498-5.002-2.854-6.783-4.064-4.449-3.022-6.673-4.533-6.448-5.565Z"/><path d="M388.192,222.302c.383-1.099,1.526-3.074,8.87-5.391,5.935-1.872,10.702-2.322,11.826-2.435,17.473-1.745,24.305-8.746,28.87-4.714,1.671,1.476,2.07,3.574,2.783,7.323.644,3.385.207,5.023-.696,13.044-.989,8.793-1.565,14.782-1.565,14.783-.28,2.912-.52,5.618-1.565,9.217-.643,2.215-1.368,3.997-1.913,5.217-.288,1.317-.922,3.049-2.425,4-3.06,1.934-7.674-.667-10.619-2.327-3.027-1.707-5.667-3.786-10.609-8.977-8.036-8.442-6.461-8.623-11.304-12.87-4.388-3.848-7.276-5.099-9.913-9.739-1.189-2.092-2.6-4.657-1.739-7.13Z"/><path d="M406.806,287.737c1.297-2.33,3.692-3.365,4.864-3.87,1.876-.81,3.199-.828,8.696-.826,8.247.004,9.002.048,9.689.843,1.778,2.059.421,6.059-.645,9.2-.729,2.147-1.081,2.176-3.652,7.652-.671,1.43-1.317,2.866-2.609,5.739-2.248,5.002-2.697,6.132-4.011,7.652-1.201,1.389-2.99,3.458-4.751,3.13-1.064-.198-1.944-1.239-3.76-6.609-1.567-4.635-2.437-8.372-3.304-12.799-1.413-7.207-1.331-8.648-.516-10.113Z"/><path d="M241.481,239.234c3.197-1.748,9.862,4.689,12.11,6.893,22.254,21.825,46.516,51.349,53.363,59.478,23.621,28.043,35.432,42.065,48.89,48.399,6.365,2.996,17.944,7.475,18.087,14.209.093,4.391-4.716,7.771-12.522,12.87-17.513,11.439-26.27,17.159-34.783,21.217-28.101,13.398-42.331,19.994-51.13,14.957-4.067-2.328-6.129-6.106-10.087-13.565-7.93-14.947-10.718-28.76-11.818-37.913-.894-6.032-2.165-15.149-3.404-26.337-1.258-11.365-1.026-11.718-2.169-22.15-1.275-11.632-1.818-13.523-4.87-37.426-.026-.202-.713-7.091-2.087-20.87-1.232-12.349-1.802-18.549.419-19.763Z"/><path d="M236.184,386.302c1.095-.142,2.269,1.353,3.791,4.174,6.35,11.77,3.227,17.846,8.738,25.739,2.617,3.749,5.672,5.745,4.879,7.652-.386.928-1.452,1.282-5.922,2.087-7.428,1.337-11.204,1.993-14.261,1.391-3.617-.712-6.46-1.272-7.652-3.478-1.945-3.6,3.131-6.728,5.217-16.933.775-3.792.404-4.969,1.739-11.588,1.602-7.942,2.681-8.941,3.471-9.044Z"/><path d="M217.214,244.389c2.145.239,3.653,1.437,4.069,1.776,4.954,4.038,3.044,12.185,2.889,23.975-.085,6.504.978,12.973,1.365,19.466,1.307,21.877,1.96,32.816,3.35,43.13,3.013,22.357,6.799,29.734,1.391,36.913-2.679,3.557-5.874,4.754-8.996,10.739-2.157,4.135-1.746,5.699-4.069,15.304-.39,1.614-2.299,9.404-5.718,18.435-3.89,10.277-6.04,12.4-8.348,13.442-3.493,1.577-7.066.547-9.044,0-18.585-5.145-13.902-.309-36.054-7.144-2.732-.843-12.281-3.841-29.577-11.212-22.967-9.788-48.59-20.901-47.427-29.869.235-1.816,1.625-3.978,1.753-4.174,2.687-4.121,6.551-4.691,11.062-7.304,2.212-1.282,1.561-1.306,9.393-8.517,12.512-11.521,14.047-11.342,14.503-11.005.975.719-1.23,3.441-.523,8.044.539,3.513,2.702,7.651,4.87,7.652,1.82,0,2.447-2.917,6.37-10.035,2.334-4.236,4.656-8.398,8.367-12.64,3.086-3.528,3.311-2.741,7.177-6.89,4.744-5.09,5.183-7.108,9.391-11.826,3.616-4.054,6.166-5.785,8.696-8,6.941-6.078,8.83-11.505,15.304-22.609,5.53-9.485,3.108-3.735,21.913-31.023,6.506-9.441,11.746-17.313,17.891-16.629Z"/><path d="M194.452,244.347c.652,1.242-1.288,3.766-16.348,16.671-8.553,7.329-15.246,12.785-22.609,18.849-17.598,14.493-14.051,11.89-18.435,15.304-12.36,9.627-15.639,10.915-20.522,17.391-2.477,3.286-3.505,5.436-8,11.13-5.688,7.206-8.492,9.399-11.413,10.915-1.515.786-4.222,2.192-8.031,2.816-3.916.642-5.496-.116-8.048.95-1.674.7-3.937,2.256-5.877,6.197-.828,1.675-2.315,4.097-4.892,6.252-5.4,4.516-11.669,4.576-13.565,4.522-2.992-2.379-7.175-6.043-11.478-11.13-5.05-5.969-7.957-11.481-13.565-22.261-3.572-6.867-8.308-16.529-12.522-29.217-3.411-10.274-3.043-12.18-2.435-13.565,2.239-5.098,9.036-6.094,32.348-9.043,31.169-3.943,32.222-3.831,38.261-5.333,9.744-2.423,13.509-4.332,25.391-6.493,9.364-1.703,9.777-1.018,18.783-2.783,12.541-2.458,13.39-4.104,26.077-6.583,6.931-1.354,5.112-.559,19.141-2.808,13.374-2.145,17.002-3.184,17.739-1.781Z"/><path d="M21.108,150.193c3.956-1.91,7.392-1.832,12.511-1.804,3.863.021,9.79.02,17.529-.122,8.58.736,17.159,1.473,25.739,2.209,6.607,2.397,16.655,6.324,28.55,12.174,10.327,5.078,9.735,5.551,23.037,12.174,10.916,5.435,15.926,7.412,29.622,14.455,5.988,3.079,9.457,4.977,10.598,5.604,10.314,5.667,10.195,6.234,16.715,9.605,7.672,3.966,10.001,4.3,16,8.25,4.775,3.144,8.851,5.827,8.356,7.953-.618,2.651-7.947,2.75-17.338,3.525-10.054.83-19.959,2.97-29.974,4.174-33.193,3.991-30.279,6.822-52.87,8.515-17.637,1.321-22.232-.194-31.652,3.951-4.566,2.009-10.13,5.287-20.522,9.1-7.259,2.663-10.856,3.38-14.609,3.478-3.839.101-4.976-.521-9.181,0-2.361.292-6.536.809-11.088,3.212-4.372,2.308-4.686,4.03-6.748,4.062-5.319.084-9.493-11.275-9.964-12.589-3.003-8.391-2.198-14.575-.585-32.25,1.523-16.685,2.285-25.027,2.482-28.144.982-15.57.842-25.452,6.91-32.45.881-1.016,2.981-3.39,6.482-5.081Z"/></svg>