<svg xmlns="http://www.w3.org/2000/svg" width="1300" height="529" viewBox="0 0 1300 529">
<style>text{font-family:Inter,Segoe UI,sans-serif}.h{font-size:15px;font-weight:700;fill:#e8e4dc}.s{font-size:11px;fill:#9fafb0}.l{font-size:9px}.frame{fill:none;stroke:#4a4a4a;stroke-width:1}.cap{font-size:11px;fill:#9fafb0}</style>
<rect width="1300" height="529" fill="#14181a"/>
<text x="20" y="26" class="h">PRODUCTION</text>
<text x="20" y="46" class="s">culineire.ie/chef-battle/arena/ at 1920x1080</text>
<rect x="10" y="60" width="620.0" height="348.8" class="frame"/>
<rect x="162.2" y="180.7" width="312.4" height="246.7" fill="#c49a5c" fill-opacity="0.13" stroke="#c49a5c" stroke-width="1.2"/>
<text x="165.2" y="192.7" class="l" fill="#c49a5c">Floor / octagon 967x764</text>
<rect x="290.4" y="257.9" width="55.9" height="41.3" fill="#e8c37a" fill-opacity="0.13" stroke="#e8c37a" stroke-width="1.2"/>
<text x="293.4" y="269.9" class="l" fill="#e8c37a">Crown 173x128</text>
<rect x="267.7" y="261.0" width="21.4" height="22.5" fill="#d05050" fill-opacity="0.13" stroke="#d05050" stroke-width="1.2"/>
<text x="270.7" y="273.0" class="l" fill="#d05050">Fighters 66x70</text>
<rect x="283.5" y="207.7" width="69.8" height="215.8" fill="#8a7a5a" fill-opacity="0.13" stroke="#8a7a5a" stroke-width="1.2"/>
<text x="286.5" y="219.7" class="l" fill="#8a7a5a">Rank spine 216x668</text>
<rect x="19.6" y="112.6" width="98.2" height="82.0" fill="#5f7f6a" fill-opacity="0.13" stroke="#5f7f6a" stroke-width="1.2"/>
<text x="22.6" y="124.6" class="l" fill="#5f7f6a">Top-left panel 304x254</text>
<rect x="17.7" y="404.4" width="80.1" height="53.8" fill="#5f7f6a" fill-opacity="0.13" stroke="#5f7f6a" stroke-width="1.2"/>
<text x="20.7" y="416.4" class="l" fill="#5f7f6a">Crown ladder 248x167</text>
<rect x="539.0" y="388.4" width="80.1" height="69.8" fill="#5f7f6a" fill-opacity="0.13" stroke="#5f7f6a" stroke-width="1.2"/>
<text x="542.0" y="400.4" class="l" fill="#5f7f6a">Recent gifts 248x216</text>
<rect x="420.7" y="161.4" width="198.4" height="23.5" fill="#4a6b8a" fill-opacity="0.13" stroke="#4a6b8a" stroke-width="1.2"/>
<text x="423.7" y="173.4" class="l" fill="#4a6b8a">Metrics 614x73</text>
<rect x="10.3" y="473.9" width="616.1" height="19.0" fill="#4a6b8a" fill-opacity="0.13" stroke="#4a6b8a" stroke-width="1.2"/>
<text x="13.3" y="485.9" class="l" fill="#4a6b8a">Ticker 1908x59</text>
<rect x="151.2" y="109.8" width="344.7" height="14.3" fill="#4a6b8a" fill-opacity="0.13" stroke="#4a6b8a" stroke-width="1.2"/>
<text x="154.2" y="121.8" class="l" fill="#4a6b8a">Phase rail 1068x44</text>
<text x="660" y="26" class="h">DESIGN TEMPLATE</text>
<text x="660" y="46" class="s">authored canvas 1920x1080 (fixed; identical at any viewport)</text>
<rect x="650" y="60" width="620.0" height="348.8" class="frame"/>
<rect x="704.0" y="166.3" width="512.0" height="215.5" fill="#c49a5c" fill-opacity="0.13" stroke="#c49a5c" stroke-width="1.2"/>
<text x="707.0" y="178.3" class="l" fill="#c49a5c">Floor / octagon 1585x668</text>
<rect x="929.3" y="269.2" width="61.4" height="54.2" fill="#e8c37a" fill-opacity="0.13" stroke="#e8c37a" stroke-width="1.2"/>
<text x="932.3" y="281.2" class="l" fill="#e8c37a">Crown 190x168</text>
<rect x="844.4" y="214.4" width="63.3" height="78.8" fill="#d05050" fill-opacity="0.13" stroke="#d05050" stroke-width="1.2"/>
<text x="847.4" y="226.4" class="l" fill="#d05050">Fighters 196x244</text>
<rect x="927.9" y="123.3" width="64.2" height="75.9" fill="#8a7a5a" fill-opacity="0.13" stroke="#8a7a5a" stroke-width="1.2"/>
<text x="930.9" y="135.3" class="l" fill="#8a7a5a">Rank spine 199x235</text>
<rect x="659.0" y="289.9" width="102.0" height="87.8" fill="#5f7f6a" fill-opacity="0.13" stroke="#5f7f6a" stroke-width="1.2"/>
<text x="662.0" y="301.9" class="l" fill="#5f7f6a">Crown ladder 316x272</text>
<rect x="1154.4" y="305.7" width="106.6" height="72.0" fill="#5f7f6a" fill-opacity="0.13" stroke="#5f7f6a" stroke-width="1.2"/>
<text x="1157.4" y="317.7" class="l" fill="#5f7f6a">Recent gifts 330x223</text>
<rect x="1086.1" y="91.6" width="174.8" height="22.6" fill="#4a6b8a" fill-opacity="0.13" stroke="#4a6b8a" stroke-width="1.2"/>
<text x="1089.1" y="103.6" class="l" fill="#4a6b8a">Metrics 541x70</text>
<rect x="786.2" y="384.2" width="347.6" height="16.8" fill="#4a6b8a" fill-opacity="0.13" stroke="#4a6b8a" stroke-width="1.2"/>
<text x="789.2" y="396.2" class="l" fill="#4a6b8a">Ticker 1076x52</text>
<text x="10" y="439" class="cap">Scaled box diagram built from the measured bounding boxes in the JSON beside this file.</text>
<text x="10" y="455" class="cap">Both panes drawn at the same scale (0.3229 px per CSS px), so a box here is comparable to the box opposite.</text>
<text x="10" y="471" class="cap">This is NOT a photograph and does not show colour, texture or depth. It shows position and size only.</text>
</svg>
