<svg xmlns="http://www.w3.org/2000/svg" viewBox="0 0 48 48" width="48" height="48">
  <defs>
    <radialGradient id="lg" cx="50%" cy="50%" r="50%">
      <stop offset="0%" stop-color="#78350f"/>
      <stop offset="100%" stop-color="#1c0a00"/>
    </radialGradient>
  </defs>
  <rect x="4" y="4" width="40" height="40" rx="6" fill="url(#lg)" stroke="#f59e0b" stroke-width="2"/>
  <!-- Outer star -->
  <polygon points="24,6 28,18 41,18 31,26 35,39 24,31 13,39 17,26 7,18 20,18" fill="#f59e0b" opacity="0.3"/>
  <polygon points="24,6 28,18 41,18 31,26 35,39 24,31 13,39 17,26 7,18 20,18" fill="none" stroke="#f59e0b" stroke-width="2" stroke-linejoin="round"/>
  <!-- Inner glow star -->
  <polygon points="24,13 26.5,20 34,20 28,24.5 30.5,32 24,27.5 17.5,32 20,24.5 14,20 21.5,20" fill="#fcd34d" opacity="0.7"/>
  <text x="24" y="45" text-anchor="middle" font-family="Georgia,serif" font-size="5.5" fill="#fcd34d" font-weight="bold">LEGENDARY</text>
</svg>
